<svg xmlns="http://www.w3.org/2000/svg" viewBox="0 0 32 32">
  <!-- Dark background with rounded corners -->
  <rect width="32" height="32" rx="7" fill="#030712"/>
  <!-- Shield body fill (gives bulk at small sizes) -->
  <path d="M16 3.5L27 7.5V18c0 5.8-5 10.5-11 11.5C10 28.5 5 23.8 5 18V7.5L16 3.5z"
        fill="#1e3a8a"/>
  <!-- Shield outer stroke -->
  <path d="M16 3.5L27 7.5V18c0 5.8-5 10.5-11 11.5C10 28.5 5 23.8 5 18V7.5L16 3.5z"
        fill="none" stroke="#3b82f6" stroke-width="1.5" stroke-linejoin="round"/>
  <!-- Inner highlight -->
  <path d="M16 3.5L27 7.5V18c0 5.8-5 10.5-11 11.5C10 28.5 5 23.8 5 18V7.5L16 3.5z"
        fill="none" stroke="#93c5fd" stroke-width="0.5" stroke-linejoin="round" opacity="0.4"/>
</svg>
